<svg width="30" height="30" viewBox="0 0 30 30" fill="none" xmlns="http://www.w3.org/2000/svg">
<path d="M8.48 22.264C6.704 22.264 5.296 21.776 4.256 20.8C3.232 19.808 2.72 18.48 2.72 16.816H5.72C5.72 17.696 5.968 18.384 6.464 18.88C6.96 19.376 7.632 19.624 8.48 19.624C9.328 19.624 10 19.384 10.496 18.904C10.992 18.408 11.24 17.72 11.24 16.84V7.264H7.16V4.48H14.24V16.84C14.24 18.52 13.72 19.848 12.68 20.824C11.656 21.784 10.256 22.264 8.48 22.264Z" fill="#FFAA00"/>
<path d="M15.6896 25.0897V7.5697H26.5856V10.3537H18.6416V15.0337H25.9616V17.8177H18.6896V25.0897H15.6896Z" fill="#FFAA00"/>
</svg>
