<svg width="20" height="20" viewBox="0 0 20 20" fill="none" xmlns="http://www.w3.org/2000/svg">
<path d="M6.25171 16.9025H8.40004V17.8009H7.15004V18.6992H8.40004V19.5975H6.25171V16.9025ZM8.82921 16.9025H10.9784V17.6842H9.72838V17.84H10.9784V19.6367H8.82921V18.8167H10.0792V18.66H8.82921V16.9025ZM11.4084 16.9025H13.5559V17.6842H12.3059V17.84H13.5559V19.6367H11.4084V18.8167H12.6584V18.66H11.4084V16.9025Z" fill="white"/>
<path fill-rule="evenodd" clip-rule="evenodd" d="M9.9925 16.0692L4.20583 14.4625L2.5 0H17.5L15.795 14.4608L9.9925 16.0692ZM5.8725 6.54667L6.03167 8.32H12.1792L11.9733 10.62L9.995 11.155H9.99333L8.01833 10.6217L7.89167 9.2075H6.11083L6.35917 11.9925L9.9925 13.0008L13.6317 11.9925L14.075 7.0225L14.1183 6.54667L14.4383 2.95583H5.55333L5.715 4.73H12.495L12.3333 6.54667H5.8725Z" fill="white"/>
</svg>
