<svg width="20" height="20" viewBox="0 0 20 20" fill="none" xmlns="http://www.w3.org/2000/svg">
<g clip-path="url(#clip0_7_25)">
<path fill-rule="evenodd" clip-rule="evenodd" d="M4.6875 0H15.3125C17.9013 0 20 2.09867 20 4.6875V15.3125C20 17.9013 17.9013 20 15.3125 20H4.6875C2.09867 20 0 17.9013 0 15.3125V4.6875C0 2.09867 2.09867 0 4.6875 0ZM1.43352 13.0273C1.55581 13.1415 1.70432 13.1987 1.87906 13.1987C2.05672 13.1987 2.20672 13.1415 2.32906 13.0273C2.45427 12.91 2.51688 12.7708 2.51688 12.6095C2.51688 12.4454 2.45427 12.3047 2.32906 12.1874C2.20672 12.0702 2.05672 12.0116 1.87906 12.0116C1.70432 12.0116 1.55581 12.0702 1.43352 12.1874C1.31117 12.3047 1.25 12.4454 1.25 12.6095C1.25 12.7708 1.31117 12.91 1.43352 13.0273ZM7.72883 13.102H8.86461V6.79688H7.86422V10.8595C7.86422 11.2582 7.87878 11.5411 7.90789 11.7082H7.89047C7.85552 11.6378 7.77687 11.5089 7.65453 11.3212L4.7625 6.79688H3.55242V13.102H4.55719V8.96891C4.55719 8.52635 4.54555 8.23763 4.52227 8.10273H4.54852C4.59883 8.23034 4.66174 8.35262 4.73633 8.46773L7.72883 13.102ZM10.2409 13.102H13.7577V12.2182H11.2807V10.3539H13.4345V9.47016H11.2807V7.68508H13.6179V6.79688H10.2409V13.102ZM16.9557 7.68508H18.7555V6.79688H14.1205V7.68508H15.9159V13.102H16.9557V7.68508Z" fill="black"/>
</g>
<defs>
<clipPath id="clip0_7_25">
<rect width="20" height="20" fill="white"/>
</clipPath>
</defs>
</svg>
