<svg width="16" height="20" viewBox="0 0 16 20" fill="none" xmlns="http://www.w3.org/2000/svg">
<path d="M2.23334 0H3.135V0.890833H3.96V0H4.86167V2.69667H3.96V1.79417H3.135V2.69667H2.23417L2.23334 0ZM6.04667 0.894167H5.25334V0H7.7425V0.894167H6.94834V2.69667H6.04667V0.894167ZM8.1375 0H9.0775L9.65584 0.9475L10.2333 0H11.1733V2.69667H10.2758V1.36L9.65584 2.31917H9.64L9.01917 1.36083V2.69667H8.1375V0ZM11.6217 0H12.5242V1.80583H13.7908V2.6975H11.6217V0Z" fill="white"/>
<path fill-rule="evenodd" clip-rule="evenodd" d="M2.205 18.3933L0.5 3.93085H15.5L13.7942 18.3917L7.99167 20L2.205 18.3933ZM5.6525 10.4767L5.49083 8.66001H12.2783L12.4367 6.88668H3.55333L4.03167 12.2508H10.1792L9.97333 14.5508L7.995 15.0858H7.99333L6.01833 14.5525L5.89167 13.1383H4.11L4.35833 15.9233L7.99167 16.9317L11.6308 15.9233L12.0742 10.9533L12.1175 10.4775L5.6525 10.4767Z" fill="white"/>
</svg>
