<svg width="20" height="20" viewBox="0 0 20 20" fill="none" xmlns="http://www.w3.org/2000/svg">
<path d="M3.33333 0C2.44928 0 1.60143 0.35119 0.976311 0.976311C0.35119 1.60143 0 2.44928 0 3.33333V16.6667C0 17.5507 0.35119 18.3986 0.976311 19.0237C1.60143 19.6488 2.44928 20 3.33333 20H16.6667C17.5507 20 18.3986 19.6488 19.0237 19.0237C19.6488 18.3986 20 17.5507 20 16.6667V3.33333C20 2.44928 19.6488 1.60143 19.0237 0.976311C18.3986 0.35119 17.5507 0 16.6667 0H3.33333ZM11.4822 14.5056C12.2822 15.15 13.0807 15.4678 13.8778 15.4589C14.3667 15.4589 14.7415 15.3693 15.0022 15.19C15.1236 15.1112 15.2224 15.0021 15.2888 14.8735C15.3553 14.745 15.3871 14.6013 15.3811 14.4567C15.3828 14.2989 15.3498 14.1427 15.2846 13.9991C15.2193 13.8555 15.1233 13.728 15.0033 13.6256C14.7426 13.3981 14.2493 13.17 13.5233 12.9411C12.6515 12.6893 11.9793 12.3633 11.5067 11.9633C11.043 11.5633 10.8067 11.0052 10.7978 10.2889C10.7978 9.61259 11.0911 9.0463 11.6778 8.59C12.2481 8.1337 12.9778 7.90556 13.8667 7.90556C15.1052 7.90556 16.0989 8.20704 16.8478 8.81L15.9922 10.1422C15.6842 9.9027 15.3307 9.72808 14.9533 9.62889C14.6142 9.51526 14.2598 9.45345 13.9022 9.44556C13.48 9.44556 13.1419 9.52296 12.8878 9.67778C12.6359 9.83333 12.51 10.037 12.51 10.2889C12.51 10.5659 12.6644 10.8022 12.9733 10.9978C13.2844 11.1859 13.8141 11.3937 14.5622 11.6211C15.4667 11.89 16.1104 12.2485 16.4933 12.6967C16.8763 13.1448 17.0678 13.7152 17.0678 14.4078C17.0678 15.1167 16.7948 15.7278 16.2489 16.2411C15.7111 16.7463 14.9289 17.0111 13.9022 17.0356C12.5578 17.0356 11.4333 16.6322 10.5289 15.8256L11.4822 14.5056ZM5.33778 15.2144C5.59852 15.3774 5.91222 15.4589 6.27889 15.4589C6.66185 15.4589 6.97963 15.3489 7.23222 15.1289C7.48407 14.9007 7.61037 14.5056 7.61111 13.9433V8.05222H9.26111V14.2611C9.23667 15.2226 8.95963 15.9152 8.43 16.3389C8.1402 16.5839 7.80327 16.7669 7.44 16.8767C7.10313 16.9792 6.75324 17.0328 6.40111 17.0356C5.79 17.0356 5.24815 16.9296 4.77556 16.7178C4.27037 16.4904 3.84667 16.087 3.50444 15.5078L4.65333 14.5667C4.86444 14.8519 5.09259 15.0678 5.33778 15.2144Z" fill="white"/>
</svg>
