<svg width="19" height="20" viewBox="0 0 19 20" fill="none" xmlns="http://www.w3.org/2000/svg">
<path d="M17.1452 0H1.85476C0.830888 0 0 0.874444 0 1.95333V18.0467C0 19.1244 0.830888 20 1.85476 20H17.1452C18.1702 20 19 19.1256 19 18.0467V1.95333C19 0.875555 18.1702 0 17.1452 0ZM11.0213 11.0933H8.6466V18.2422H6.75432V11.0933H4.37851V9.49222H11.0213V11.0933ZM17.1452 16.9567C16.9962 17.3089 16.7411 17.57 16.4398 17.7778C16.1203 17.9825 15.7687 18.1277 15.4009 18.2067C14.986 18.2972 14.563 18.3419 14.139 18.34C13.7035 18.3414 13.2688 18.3005 12.8407 18.2178C12.4668 18.1496 12.1043 18.0261 11.7643 17.8511V15.9744L11.6935 15.9156L11.7643 15.8989V15.9744C12.0795 16.2389 12.4269 16.4407 12.8064 16.58C13.1784 16.7278 13.5858 16.8022 13.9943 16.8022C14.2538 16.8022 14.451 16.7789 14.6258 16.7356C14.7828 16.6985 14.933 16.6354 15.0707 16.5489C15.1803 16.4801 15.2711 16.3833 15.3344 16.2678C15.4 16.1393 15.4295 15.9945 15.4196 15.8495C15.4098 15.7046 15.361 15.5654 15.2787 15.4478C15.1785 15.3008 15.0527 15.1746 14.9077 15.0756C14.7329 14.9473 14.5461 14.8375 14.3502 14.7478C14.1283 14.6422 13.9021 14.5322 13.6459 14.4233C13.0144 14.1111 12.5169 13.7989 12.1985 13.3678C11.8758 12.9789 11.7161 12.47 11.7161 11.8844C11.7161 11.4156 11.8018 11.04 11.9755 10.7122C12.161 10.3611 12.3797 10.1033 12.681 9.89222C12.9779 9.67778 13.3114 9.52111 13.7198 9.42333C14.1272 9.32556 14.5368 9.27556 14.9817 9.27556C15.4266 9.27556 15.7987 9.30222 16.1321 9.35667C16.4655 9.41222 16.7775 9.49778 17.0595 9.61111V11.4467C16.9206 11.3412 16.7715 11.2511 16.6145 11.1778C16.2825 11.0285 15.9328 10.9258 15.5746 10.8722C15.4149 10.8475 15.2536 10.8352 15.0921 10.8356C14.8928 10.8328 14.6939 10.854 14.4993 10.8989C14.3418 10.9314 14.1909 10.992 14.0533 11.0778C13.9412 11.1472 13.8458 11.2422 13.7745 11.3556C13.7082 11.4642 13.6736 11.5903 13.6748 11.7189C13.6748 11.8626 13.712 11.9926 13.7863 12.1089C13.8599 12.2215 13.9654 12.3311 14.1026 12.4378C14.2248 12.5389 14.3921 12.6411 14.585 12.7422C14.807 12.8433 15.0074 12.9456 15.253 13.0511C15.5864 13.1989 15.8834 13.3633 16.1428 13.52C16.4033 13.6756 16.6221 13.8589 16.8107 14.0667C17.0112 14.2611 17.156 14.4967 17.2567 14.77C17.3575 15.0433 17.409 15.3511 17.409 15.7067C17.409 16.2144 17.2932 16.6056 17.1452 16.9567Z" fill="white"/>
</svg>
